<svg xmlns="http://www.w3.org/2000/svg" width="31.181" height="31.181" viewBox="0 0 31.181 31.181">
  <g id="Raggruppa_11" data-name="Raggruppa 11" transform="translate(-1114.239 -167.323)">
    <g id="Raggruppa_10" data-name="Raggruppa 10">
      <path id="Tracciato_13" data-name="Tracciato 13" d="M1141.219,167.323h-22.778a4.2,4.2,0,0,0-4.2,4.2V194.3a4.2,4.2,0,0,0,4.2,4.2h11.234l.019-11.142h-2.9a.683.683,0,0,1-.683-.681l-.014-3.592a.683.683,0,0,1,.683-.685h2.89v-3.471c0-4.027,2.46-6.22,6.052-6.22h2.949a.683.683,0,0,1,.683.683v3.028a.683.683,0,0,1-.683.683h-1.809c-1.954,0-2.333.929-2.333,2.291V182.4h4.294a.683.683,0,0,1,.678.763l-.426,3.592a.683.683,0,0,1-.678.6h-3.848l-.02,11.142h6.685a4.2,4.2,0,0,0,4.2-4.2V171.524a4.2,4.2,0,0,0-4.2-4.2Zm0,0" fill="#fff"/>
    </g>
  </g>
</svg>
