<svg xmlns="http://www.w3.org/2000/svg" width="34.19" height="34.19" viewBox="0 0 34.19 34.19">
  <path id="Tracciato_14" data-name="Tracciato 14" d="M1366.132,182.913a5.7,5.7,0,1,1,5.7,5.7,5.7,5.7,0,0,1-5.7-5.7m-3.081,0a8.779,8.779,0,1,0,8.779-8.778,8.779,8.779,0,0,0-8.779,8.778m15.853-9.125a2.051,2.051,0,1,0,2.051-2.051,2.051,2.051,0,0,0-2.051,2.051m-13.982,23.04a9.458,9.458,0,0,1-3.174-.588,5.669,5.669,0,0,1-3.245-3.245,9.456,9.456,0,0,1-.588-3.174c-.082-1.8-.1-2.343-.1-6.908s.018-5.1.1-6.908a9.469,9.469,0,0,1,.588-3.174,5.671,5.671,0,0,1,3.245-3.244,9.451,9.451,0,0,1,3.174-.589c1.8-.082,2.343-.1,6.908-.1s5.105.017,6.908.1a9.457,9.457,0,0,1,3.174.589,5.658,5.658,0,0,1,3.244,3.244,9.465,9.465,0,0,1,.589,3.174c.082,1.8.1,2.344.1,6.908s-.017,5.106-.1,6.908a9.453,9.453,0,0,1-.589,3.174,5.656,5.656,0,0,1-3.244,3.245,9.464,9.464,0,0,1-3.174.588c-1.8.083-2.343.1-6.908.1s-5.1-.017-6.908-.1m-.14-30.906a12.516,12.516,0,0,0-4.15.794,8.745,8.745,0,0,0-5,5,12.53,12.53,0,0,0-.8,4.149c-.083,1.823-.1,2.4-.1,7.048s.02,5.225.1,7.049a12.53,12.53,0,0,0,.8,4.149,8.745,8.745,0,0,0,5,5,12.542,12.542,0,0,0,4.15.794c1.823.083,2.405.1,7.048.1s5.225-.02,7.048-.1a12.541,12.541,0,0,0,4.15-.794,8.737,8.737,0,0,0,5-5,12.533,12.533,0,0,0,.8-4.149c.083-1.824.1-2.406.1-7.049s-.02-5.225-.1-7.048a12.533,12.533,0,0,0-.8-4.149,8.738,8.738,0,0,0-5-5,12.516,12.516,0,0,0-4.15-.794c-1.823-.084-2.405-.1-7.048-.1s-5.225.02-7.048.1" transform="translate(-1354.735 -165.818)" fill="#fff"/>
</svg>
