<?xml version="1.0" encoding="utf-8"?>
<!-- Generator: Adobe Illustrator 24.1.0, SVG Export Plug-In . SVG Version: 6.00 Build 0)  -->
<svg version="1.1" id="Livello_1" xmlns="http://www.w3.org/2000/svg" xmlns:xlink="http://www.w3.org/1999/xlink" x="0px" y="0px"
	 viewBox="0 0 502 157.2" style="enable-background:new 0 0 502 157.2;" xml:space="preserve">
<g>
	<path d="M427.8,66.9c4.7,0,8.5,3.8,8.5,8.5s-3.8,8.5-8.5,8.5s-8.5-3.8-8.5-8.5S423.1,66.9,427.8,66.9"/>
	<path d="M465.5,66.9c4.7,0,8.5,3.8,8.5,8.5s-3.8,8.5-8.5,8.5s-8.5-3.8-8.5-8.5S460.8,66.9,465.5,66.9"/>
	<path d="M427.8,99.4c4.7,0,8.5,3.8,8.5,8.5s-3.8,8.5-8.5,8.5s-8.5-3.8-8.5-8.5S423.1,99.4,427.8,99.4"/>
	<path d="M428.3,39.7c1.9,0,3.5,1.5,3.5,3.5s-1.5,3.5-3.5,3.5c-1.9,0-3.5-1.5-3.5-3.5S426.4,39.7,428.3,39.7"/>
	<path d="M468.6,39.7c1.9,0,3.5,1.5,3.5,3.5s-1.5,3.5-3.5,3.5c-1.9,0-3.5-1.5-3.5-3.5S466.7,39.7,468.6,39.7"/>
	<path d="M465.5,104.7c1.8,0,3.2,1.5,3.2,3.2c0,1.8-1.5,3.2-3.2,3.2c-1.8,0-3.2-1.5-3.2-3.2C462.3,106.1,463.7,104.7,465.5,104.7"/>
	<path d="M427.8,37.6c2.9,0,5.2,2.3,5.2,5.2c0,2.9-2.3,5.2-5.2,5.2s-5.2-2.3-5.2-5.2C422.5,39.9,424.9,37.6,427.8,37.6"/>
	<g>
		<path d="M91.6,38.7c0,1.9,0,3.8,0,5.8c-6.5-4.3-14.2-6.8-22.6-6.8c-22.6,0-41,18.3-41,41c0,22.6,18.3,41,41,41
			c8.3,0,16.1-2.5,22.6-6.8c0,1.3,0,2.6,0,3.9c3.5,0,12.3,0,18.2,0c0-10.6,0-22.3,0-34.1c0-2.7,0-5.4,0-8.1c0-13.3,0-26.2,0-37
			c-5.8,0-14.7,0-18.2,0C91.6,37.9,91.6,38.3,91.6,38.7z M69,101.2c-12.5,0-22.6-10.1-22.6-22.6S56.5,56,69,56
			c12.3,0,22.2,9.8,22.6,22c0,0.4,0,0.9,0,1.3C91.2,91.5,81.2,101.2,69,101.2z"/>
		<path d="M358.3,37.7c-5.7,0-11.1,1.4-15.8,3.9c0-1.6,0-3,0-4c-4.1,0-12.3,0-18.2,0c0,24.6,0,59,0,75.7c0,1.3,0,2.5,0,3.5
			c7.5,0,14.6,0,18.2,0c0-9.9,0-33.1,0-46.5c0-8.7,7.1-15.8,15.8-15.8s15.8,7.1,15.8,15.8c0,14.3,0,36,0,46.5c3.8,0,10.6,0,18.2,0
			c0-9.9,0-29.7,0-44c0-0.4,0-0.7,0-1.1C392.2,52.9,377,37.7,358.3,37.7z"/>
		<path d="M121.7,37.6c0,7.5,0,14.5,0,18c3.4,0,12.2,0,18.2,0c0-0.6,0-1.2,0-1.9c0-4,0-9.9,0-16.1C134.5,37.6,127,37.6,121.7,37.6z"
			/>
		<path d="M189.1,101.2c-12.5,0-22.6-10.1-22.6-22.6S176.6,56,189.1,56c7.4,0,13.9,3.5,18.1,9h20.6c-5.6-16-20.8-27.4-38.7-27.4
			c-22.6,0-41,18.3-41,41c0,22.6,18.3,41,41,41c17.9,0,33.1-11.5,38.7-27.4h-20.6C203,97.7,196.5,101.2,189.1,101.2z"/>
		<path d="M276.1,37.7c-22.6,0-41,18.3-41,41c0,22.6,18.3,41,41,41c22.6,0,41-18.3,41-41C317.1,56,298.7,37.7,276.1,37.7z
			 M276.1,101.2c-12.5,0-22.6-10.1-22.6-22.6S263.6,56,276.1,56s22.6,10.1,22.6,22.6C298.7,91.1,288.6,101.2,276.1,101.2z"/>
		<path d="M121.7,61.1c0,8.6,0,33.5,0,55.7c5.1,0,12.4,0,18.2,0c0-22.6,0-47.8,0-55.7c-4.6,0-12,0-16.9,0
			C122.6,61.1,122.2,61.1,121.7,61.1z"/>
	</g>
</g>
</svg>
