<?xml version="1.0" encoding="utf-8"?>
<!-- Generator: Adobe Illustrator 24.1.0, SVG Export Plug-In . SVG Version: 6.00 Build 0)  -->
<svg version="1.1" id="Livello_1" xmlns="http://www.w3.org/2000/svg" xmlns:xlink="http://www.w3.org/1999/xlink" x="0px" y="0px"
	 viewBox="0 0 1080 1080" style="enable-background:new 0 0 1080 1080;" xml:space="preserve">
<g>
	<path d="M716.8,528.3c4.7,0,8.5,3.8,8.5,8.5c0,4.7-3.8,8.5-8.5,8.5c-4.7,0-8.5-3.8-8.5-8.5C708.3,532.1,712.1,528.3,716.8,528.3"/>
	<path d="M754.5,528.3c4.7,0,8.5,3.8,8.5,8.5c0,4.7-3.8,8.5-8.5,8.5c-4.7,0-8.5-3.8-8.5-8.5C746,532.1,749.8,528.3,754.5,528.3"/>
	<path d="M716.8,560.8c4.7,0,8.5,3.8,8.5,8.5c0,4.7-3.8,8.5-8.5,8.5c-4.7,0-8.5-3.8-8.5-8.5C708.3,564.6,712.1,560.8,716.8,560.8"/>
	<path d="M717.3,501.1c1.9,0,3.5,1.5,3.5,3.5s-1.5,3.5-3.5,3.5c-1.9,0-3.5-1.5-3.5-3.5S715.4,501.1,717.3,501.1"/>
	<path d="M757.6,501.1c1.9,0,3.5,1.5,3.5,3.5s-1.5,3.5-3.5,3.5c-1.9,0-3.5-1.5-3.5-3.5S755.7,501.1,757.6,501.1"/>
	<path d="M754.5,566.1c1.8,0,3.2,1.5,3.2,3.2c0,1.8-1.5,3.2-3.2,3.2c-1.8,0-3.2-1.5-3.2-3.2C751.3,567.5,752.7,566.1,754.5,566.1"/>
	<path d="M716.8,499c2.9,0,5.2,2.3,5.2,5.2c0,2.9-2.3,5.2-5.2,5.2c-2.9,0-5.2-2.3-5.2-5.2C711.5,501.3,713.9,499,716.8,499"/>
	<g>
		<path d="M380.6,500.1c0,1.9,0,3.8,0,5.8c-6.5-4.3-14.2-6.8-22.6-6.8c-22.6,0-41,18.3-41,41c0,22.6,18.3,41,41,41
			c8.3,0,16.1-2.5,22.6-6.8c0,1.3,0,2.6,0,3.9c3.5,0,12.3,0,18.2,0c0-10.6,0-22.3,0-34.1c0-2.7,0-5.4,0-8.1c0-13.3,0-26.2,0-37
			c-5.8,0-14.7,0-18.2,0C380.6,499.3,380.6,499.7,380.6,500.1z M358,562.6c-12.5,0-22.6-10.1-22.6-22.6c0-12.5,10.1-22.6,22.6-22.6
			c12.3,0,22.2,9.8,22.6,22c0,0.4,0,0.9,0,1.3C380.2,552.9,370.2,562.6,358,562.6z"/>
		<path d="M647.3,499.1c-5.7,0-11.1,1.4-15.8,3.9c0-1.6,0-3,0-4c-4.1,0-12.3,0-18.2,0c0,24.6,0,59,0,75.7c0,1.3,0,2.5,0,3.5
			c7.5,0,14.6,0,18.2,0c0-9.9,0-33.1,0-46.5c0-8.7,7.1-15.8,15.8-15.8c8.7,0,15.8,7.1,15.8,15.8c0,14.3,0,36,0,46.5
			c3.8,0,10.6,0,18.2,0c0-9.9,0-29.7,0-44c0-0.4,0-0.7,0-1.1C681.2,514.3,666,499.1,647.3,499.1z"/>
		<path d="M410.7,499c0,7.5,0,14.5,0,18c3.4,0,12.2,0,18.2,0c0-0.6,0-1.2,0-1.9c0-4,0-9.9,0-16.1C423.5,499,416,499,410.7,499z"/>
		<path d="M478.1,562.6c-12.5,0-22.6-10.1-22.6-22.6c0-12.5,10.1-22.6,22.6-22.6c7.4,0,13.9,3.5,18.1,9h20.6
			c-5.6-16-20.8-27.4-38.7-27.4c-22.6,0-41,18.3-41,41c0,22.6,18.3,41,41,41c17.9,0,33.1-11.5,38.7-27.4h-20.6
			C492,559.1,485.5,562.6,478.1,562.6z"/>
		<path d="M565.1,499.1c-22.6,0-41,18.3-41,41c0,22.6,18.3,41,41,41c22.6,0,41-18.3,41-41C606.1,517.4,587.7,499.1,565.1,499.1z
			 M565.1,562.6c-12.5,0-22.6-10.1-22.6-22.6c0-12.5,10.1-22.6,22.6-22.6c12.5,0,22.6,10.1,22.6,22.6
			C587.7,552.5,577.6,562.6,565.1,562.6z"/>
		<path d="M410.7,522.5c0,8.6,0,33.5,0,55.7c5.1,0,12.4,0,18.2,0c0-22.6,0-47.8,0-55.7c-4.6,0-12,0-16.9,0
			C411.6,522.5,411.2,522.5,410.7,522.5z"/>
	</g>
</g>
</svg>
